#!OML:ASF F:\VICON\USERDATA\INSTALL\rory3\rory3.ASF
:FULLY-SPECIFIED
:DEGREES
283
root 0.749944 16.1264 6.08512 2.37489 -1.17818 6.512
lowerback 12.9115 0.190396 -10.5708
upperback -4.90605 -1.54155 1.067
thorax -12.5094 0.185427 7.54756
lowerneck -10.1191 -4.8672 -2.99341
upperneck 19.1324 -6.73975 2.6499
head 7.75563 -3.19078 0.707809
rclavicle -1.2424e-014 1.74931e-014
rhumerus -46.6229 -3.00949 -83.0074
rradius 25.1376
rwrist 7.82382
rhand -8.71062 24.1484
rfingers 7.12502
rthumb 17.225 -5.10822
lclavicle -1.2424e-014 1.74931e-014
lhumerus -31.6602 1.54123 87.5073
lradius 30.1302
lwrist 3.55654
lhand -5.43623 19.0695
lfingers 7.12502
lthumb 20.3742 48.0207
rfemur -37.4253 21.622 3.97476
rtibia 26.5018
rfoot -14.8227 -16.6684
rtoes 12.1077
lfemur 15.2269 -12.8479 -34.8395
ltibia 0
lfoot -11.2428 9.704
ltoes 8.90479
284
root 0.741589 16.1186 6.21352 2.52529 -0.967158 6.54886
lowerback 12.7344 0.102214 -10.5422
upperback -4.9652 -1.64076 1.03701
thorax -12.4501 0.132808 7.51381
lowerneck -9.82863 -4.8192 -2.86128
upperneck 18.9833 -6.69419 2.62852
head 7.64735 -3.16688 0.693074
rclavicle 9.7156e-015 1.43125e-014
rhumerus -46.8051 -2.97582 -83.0387
rradius 25.1302
rwrist 7.81844
rhand -8.47759 22.2667
rfingers 7.12502
rthumb 17.4493 -6.97012
lclavicle 9.7156e-015 1.43125e-014
lhumerus -31.5813 1.6084 87.4785
lradius 30.0447
lwrist 3.33987
lhand -5.01659 19.3279
lfingers 7.12502
lthumb 20.7775 48.2355
rfemur -37.8035 22.7089 3.03148
rtibia 25.6734
rfoot -16.0935 -17.1859
rtoes 13.9228
lfemur 15.605 -12.7408 -34.891
ltibia 4.77083e-014
lfoot -11.5146 9.55676
ltoes 7.50864
285
root 0.736264 16.0993 6.34532 2.62895 -0.777957 6.75925
lowerback 12.6931 0.0508632 -10.5762
upperback -5.06634 -1.72527 0.967989
thorax -12.5271 0.100915 7.47433
lowerneck -9.54707 -4.80102 -2.83296
upperneck 18.6829 -6.66071 2.58637
head 7.49475 -3.15905 0.688505
rclavicle 1.10325e-014 2.38542e-015
rhumerus -47.0377 -3.00237 -82.9216
rradius 25.1223
rwrist 7.94827
rhand -8.28765 21.3406
rfingers 7.12502
rthumb 17.632 -7.87992
lclavicle 1.10325e-014 2.38542e-015
lhumerus -31.666 1.56122 87.6112
lradius 29.9291
lwrist 3.33095
lhand -5.19343 18.8808
lfingers 7.12502
lthumb 20.6076 47.8069
rfemur -38.0861 23.3886 2.15168
rtibia 25.0491
rfoot -16.7933 -17.5352
rtoes 13.7107
lfemur 16.0926 -12.5999 -35.1649
ltibia -2.54444e-014
lfoot -11.9752 9.31168
ltoes 7.03743
286
root 0.724117 16.0802 6.48304 2.68831 -0.56505 6.79972
lowerback 12.7172 0.0338685 -10.4685
upperback -5.10828 -1.73682 0.944848
thorax -12.5893 0.0910801 7.39102
lowerneck -9.48672 -4.8654 -3.04841
upperneck 18.5546 -6.73414 2.71507
head 7.45657 -3.19909 0.760855
rclavicle 1.31695e-015 2.38542e-014
rhumerus -47.1665 -3.19487 -82.723
rradius 25.0583
rwrist 8.07061
rhand -8.47059 21.5229
rfingers 7.12502
rthumb 17.456 -7.7133
lclavicle 1.31695e-015 2.38542e-014
lhumerus -31.631 1.44637 87.7934
lradius 29.7163
lwrist 3.30198
lhand -5.4635 18.1457
lfingers 7.12502
lthumb 20.348 47.0997
rfemur -38.3087 24.1241 1.56919
rtibia 24.6467
rfoot -17.3379 -17.9698
rtoes 13.2546
lfemur 16.6426 -12.4746 -35.216
ltibia 3.18055e-014
lfoot -12.3152 9.08167
ltoes 6.06954
287
root 0.711988 16.0643 6.62669 2.70189 -0.382871 6.70575
lowerback 12.6687 -0.0447851 -10.3392
upperback -5.08571 -1.80989 0.964429
thorax -12.5175 0.0413747 7.35296
lowerneck -9.55759 -4.90276 -3.13222
upperneck 18.7209 -6.78907 2.78081
head 7.53091 -3.22286 0.786824
rclavicle 4.09993e-015 -1.03368e-014
rhumerus -47.1028 -3.40529 -82.5758
rradius 24.6852
rwrist 8.42556
rhand -8.52666 21.6813
rfingers 7.12502
rthumb 17.402 -7.55974
lclavicle 4.09993e-015 -1.03368e-014
lhumerus -31.5388 1.56087 87.7617
lradius 29.5486
lwrist 3.18365
lhand -5.52368 17.6917
lfingers 7.12502
lthumb 20.2902 46.6519
rfemur -38.3371 24.5115 1.4384
rtibia 24.3917
rfoot -17.4741 -18.2849
rtoes 12.2847
lfemur 17.2391 -12.3046 -35.1229
ltibia -4.45278e-014
lfoot -12.561 8.84092
ltoes 4.93555
288
root 0.70362 16.0453 6.77475 2.65543 -0.279601 6.69711
lowerback 12.5224 -0.126067 -10.2767
upperback -5.01038 -1.8852 0.9736
thorax -12.3244 -0.0145271 7.33602
lowerneck -9.53948 -4.86824 -3.17966
upperneck 18.7575 -6.74512 2.83105
head 7.54178 -3.20059 0.815263
rclavicle -1.27222e-014 -6.36111e-015
rhumerus -47.1349 -3.11853 -82.6712
rradius 24.6703
rwrist 8.36405
rhand -8.38842 21.3769
rfingers 7.12502
rthumb 17.5351 -7.85232
lclavicle -1.27222e-014 -6.36111e-015
lhumerus -31.3603 1.88044 87.6917
lradius 29.2317
lwrist 2.97741
lhand -5.47261 18.1912
lfingers 7.12502
lthumb 20.3393 47.1461
rfemur -38.1645 24.4768 1.51878
rtibia 24.2255
rfoot -17.5585 -17.9951
rtoes 13.0228
lfemur 17.8434 -12.0452 -35.1326
ltibia -4.13472e-014
lfoot -12.8418 8.56951
ltoes 4.36709
289
root 0.688829 16.0257 6.91731 2.61857 -0.146469 6.65198
lowerback 12.4011 -0.169707 -10.2065
upperback -4.87147 -1.90495 1.00835
thorax -12.084 -0.0487782 7.33057
lowerneck -9.79997 -4.84994 -3.25552
upperneck 18.7176 -6.7096 2.89395
head 7.57909 -3.17974 0.84519
rclavicle 3.32964e-015 -2.38542e-015
rhumerus -46.9264 -3.14379 -82.5378
rradius 24.6119
rwrist 8.59504
rhand -8.45289 22.0487
rfingers 7.12502
rthumb 17.473 -7.18605
lclavicle 3.32964e-015 -2.38542e-015
lhumerus -31.0118 2.11041 87.6901
lradius 28.8137
lwrist 2.53929
lhand -5.20044 18.935
lfingers 7.12502
lthumb 20.6008 47.8619
rfemur -37.8993 24.2958 1.78555
rtibia 24.1584
rfoot -17.8327 -17.4663
rtoes 15.5147
lfemur 18.4118 -11.8243 -35.0632
ltibia -5.08889e-014
lfoot -13.0162 8.34058
ltoes 3.90662
